<svg width="107" height="86" viewBox="0 0 107 86" fill="none" xmlns="http://www.w3.org/2000/svg">
<g filter="url(#filter0_di)">
<path d="M26 33.7468C26 26.8029 26 23.3309 27.6496 20.8273C28.396 19.6943 29.3652 18.7251 30.4981 17.9787C33.0018 16.3291 36.4738 16.3291 43.4177 16.3291H67.5823C74.5262 16.3291 77.9982 16.3291 80.5019 17.9787C81.6348 18.7251 82.604 19.6943 83.3504 20.8273C85 23.3309 85 26.8029 85 33.7468V39.0823C85 47.932 85 52.3568 83.6243 55.8717C81.5916 61.0651 77.4828 65.1739 72.2894 67.2066C68.7745 68.5823 64.3497 68.5823 55.5 68.5823V68.5823C46.6503 68.5823 42.2255 68.5823 38.7106 67.2066C33.5172 65.1739 29.4084 61.0651 27.3757 55.8717C26 52.3568 26 47.932 26 39.0823V33.7468Z" fill="url(#paint0_linear)"/>
</g>
<g filter="url(#filter1_i)">
<path d="M11 33.9494C11 28.4265 15.4772 23.9494 21 23.9494H23V56.6076H21C15.4772 56.6076 11 52.1304 11 46.6076V33.9494Z" fill="url(#paint1_linear)"/>
</g>
<g filter="url(#filter2_di)">
<path d="M100 33.9494C100 28.4265 95.5228 23.9494 90 23.9494H88V56.6076H90C95.5228 56.6076 100 52.1304 100 46.6076V33.9494Z" fill="url(#paint2_linear)"/>
</g>
<g filter="url(#filter3_i)">
<path d="M73.4084 47.9767C71.3936 56.6464 63.6301 54.1194 60.0002 51.7722" stroke="white" stroke-width="3"/>
</g>
<defs>
<filter id="filter0_di" x="22" y="16.3291" width="67" height="60.2532" filterUnits="userSpaceOnUse" color-interpolation-filters="sRGB">
<feFlood flood-opacity="0" result="BackgroundImageFix"/>
<feColorMatrix in="SourceAlpha" type="matrix" values="0 0 0 0 0 0 0 0 0 0 0 0 0 0 0 0 0 0 127 0"/>
<feOffset dy="4"/>
<feGaussianBlur stdDeviation="2"/>
<feColorMatrix type="matrix" values="0 0 0 0 0 0 0 0 0 0 0 0 0 0 0 0 0 0 0.25 0"/>
<feBlend mode="normal" in2="BackgroundImageFix" result="effect1_dropShadow"/>
<feBlend mode="normal" in="SourceGraphic" in2="effect1_dropShadow" result="shape"/>
<feColorMatrix in="SourceAlpha" type="matrix" values="0 0 0 0 0 0 0 0 0 0 0 0 0 0 0 0 0 0 127 0" result="hardAlpha"/>
<feOffset dy="4"/>
<feGaussianBlur stdDeviation="2"/>
<feComposite in2="hardAlpha" operator="arithmetic" k2="-1" k3="1"/>
<feColorMatrix type="matrix" values="0 0 0 0 0 0 0 0 0 0 0 0 0 0 0 0 0 0 0.25 0"/>
<feBlend mode="normal" in2="shape" result="effect2_innerShadow"/>
</filter>
<filter id="filter1_i" x="11" y="23.9494" width="12" height="36.6582" filterUnits="userSpaceOnUse" color-interpolation-filters="sRGB">
<feFlood flood-opacity="0" result="BackgroundImageFix"/>
<feBlend mode="normal" in="SourceGraphic" in2="BackgroundImageFix" result="shape"/>
<feColorMatrix in="SourceAlpha" type="matrix" values="0 0 0 0 0 0 0 0 0 0 0 0 0 0 0 0 0 0 127 0" result="hardAlpha"/>
<feOffset dy="4"/>
<feGaussianBlur stdDeviation="2"/>
<feComposite in2="hardAlpha" operator="arithmetic" k2="-1" k3="1"/>
<feColorMatrix type="matrix" values="0 0 0 0 0 0 0 0 0 0 0 0 0 0 0 0 0 0 0.25 0"/>
<feBlend mode="normal" in2="shape" result="effect1_innerShadow"/>
</filter>
<filter id="filter2_di" x="84" y="23.9494" width="20" height="40.6582" filterUnits="userSpaceOnUse" color-interpolation-filters="sRGB">
<feFlood flood-opacity="0" result="BackgroundImageFix"/>
<feColorMatrix in="SourceAlpha" type="matrix" values="0 0 0 0 0 0 0 0 0 0 0 0 0 0 0 0 0 0 127 0"/>
<feOffset dy="4"/>
<feGaussianBlur stdDeviation="2"/>
<feColorMatrix type="matrix" values="0 0 0 0 0 0 0 0 0 0 0 0 0 0 0 0 0 0 0.25 0"/>
<feBlend mode="normal" in2="BackgroundImageFix" result="effect1_dropShadow"/>
<feBlend mode="normal" in="SourceGraphic" in2="effect1_dropShadow" result="shape"/>
<feColorMatrix in="SourceAlpha" type="matrix" values="0 0 0 0 0 0 0 0 0 0 0 0 0 0 0 0 0 0 127 0" result="hardAlpha"/>
<feOffset dy="4"/>
<feGaussianBlur stdDeviation="2"/>
<feComposite in2="hardAlpha" operator="arithmetic" k2="-1" k3="1"/>
<feColorMatrix type="matrix" values="0 0 0 0 0 0 0 0 0 0 0 0 0 0 0 0 0 0 0.25 0"/>
<feBlend mode="normal" in2="shape" result="effect2_innerShadow"/>
</filter>
<filter id="filter3_i" x="59.1855" y="42.5742" width="16.2972" height="20.5894" filterUnits="userSpaceOnUse" color-interpolation-filters="sRGB">
<feFlood flood-opacity="0" result="BackgroundImageFix"/>
<feBlend mode="normal" in="SourceGraphic" in2="BackgroundImageFix" result="shape"/>
<feColorMatrix in="SourceAlpha" type="matrix" values="0 0 0 0 0 0 0 0 0 0 0 0 0 0 0 0 0 0 127 0" result="hardAlpha"/>
<feOffset dy="4"/>
<feGaussianBlur stdDeviation="2"/>
<feComposite in2="hardAlpha" operator="arithmetic" k2="-1" k3="1"/>
<feColorMatrix type="matrix" values="0 0 0 0 0 0 0 0 0 0 0 0 0 0 0 0 0 0 0.25 0"/>
<feBlend mode="normal" in2="shape" result="effect1_innerShadow"/>
</filter>
<linearGradient id="paint0_linear" x1="55.5" y1="16.3291" x2="54.9075" y2="136.62" gradientUnits="userSpaceOnUse">
<stop stop-color="#3B38A9" stop-opacity="0.92"/>
<stop offset="1" stop-color="#A23489" stop-opacity="0.87"/>
</linearGradient>
<linearGradient id="paint1_linear" x1="17" y1="23.9494" x2="17" y2="56.6076" gradientUnits="userSpaceOnUse">
<stop offset="0.9999" stop-color="#4A48AC"/>
<stop offset="1" stop-color="#5452B4" stop-opacity="0"/>
</linearGradient>
<linearGradient id="paint2_linear" x1="94" y1="23.9494" x2="94" y2="56.6076" gradientUnits="userSpaceOnUse">
<stop offset="0.9999" stop-color="#4A48AC"/>
<stop offset="1" stop-color="#5452B4" stop-opacity="0"/>
</linearGradient>
</defs>
</svg>
