<svg width="139" height="58" viewBox="0 0 139 58" fill="none" xmlns="http://www.w3.org/2000/svg">
<path d="M66.9253 11.792L67.0107 13.1714C67.9385 12.089 69.208 11.5479 70.8193 11.5479C72.5853 11.5479 73.7938 12.2233 74.4448 13.5742C75.4051 12.2233 76.756 11.5479 78.4976 11.5479C79.9543 11.5479 81.0366 11.9507 81.7446 12.7563C82.4608 13.562 82.827 14.7502 82.8433 16.3208V25H79.877V16.4062C79.877 15.568 79.6938 14.9536 79.3276 14.563C78.9614 14.1724 78.3551 13.9771 77.5088 13.9771C76.8333 13.9771 76.2799 14.1602 75.8486 14.5264C75.4255 14.8844 75.1284 15.3564 74.9575 15.9424L74.9697 25H72.0034V16.3086C71.9627 14.7542 71.1693 13.9771 69.623 13.9771C68.4349 13.9771 67.5926 14.4613 67.0962 15.4297V25H64.1299V11.792H66.9253ZM93.8906 23.7061C93.0199 24.7314 91.7829 25.2441 90.1797 25.2441C88.7474 25.2441 87.661 24.825 86.9204 23.9868C86.188 23.1486 85.8218 21.936 85.8218 20.3491V11.792H88.7881V20.3125C88.7881 21.9889 89.4839 22.8271 90.8755 22.8271C92.3159 22.8271 93.2884 22.3104 93.793 21.2769V11.792H96.7593V25H93.9639L93.8906 23.7061ZM111.347 18.5303C111.347 20.5729 110.883 22.2046 109.955 23.4253C109.027 24.6379 107.782 25.2441 106.22 25.2441C104.771 25.2441 103.611 24.7681 102.741 23.8159V30.0781H99.7744V11.792H102.509L102.631 13.1348C103.502 12.0768 104.686 11.5479 106.183 11.5479C107.794 11.5479 109.056 12.1501 109.967 13.3545C110.887 14.5508 111.347 16.215 111.347 18.3472V18.5303ZM108.393 18.2739C108.393 16.9556 108.128 15.9098 107.599 15.1367C107.078 14.3636 106.33 13.9771 105.353 13.9771C104.14 13.9771 103.27 14.4775 102.741 15.4785V21.3379C103.278 22.3633 104.157 22.876 105.377 22.876C106.321 22.876 107.058 22.4976 107.587 21.7407C108.124 20.9757 108.393 19.8201 108.393 18.2739ZM118.341 20.752L121.027 11.792H124.188L118.939 27.002C118.134 29.2236 116.767 30.3345 114.838 30.3345C114.407 30.3345 113.931 30.2612 113.41 30.1147V27.8198L113.971 27.8564C114.72 27.8564 115.281 27.7181 115.656 27.4414C116.038 27.1729 116.339 26.7171 116.559 26.0742L116.986 24.939L112.348 11.792H115.546L118.341 20.752Z" fill="white"/>
<path d="M67.9453 42.7734H64.3711L63.5684 45H62.4082L65.666 36.4688H66.6504L69.9141 45H68.7598L67.9453 42.7734ZM64.7109 41.8477H67.6113L66.1582 37.8574L64.7109 41.8477ZM73.4355 44.2324C73.8223 44.2324 74.1602 44.1152 74.4492 43.8809C74.7383 43.6465 74.8984 43.3535 74.9297 43.002H75.9551C75.9355 43.3652 75.8105 43.7109 75.5801 44.0391C75.3496 44.3672 75.041 44.6289 74.6543 44.8242C74.2715 45.0195 73.8652 45.1172 73.4355 45.1172C72.5723 45.1172 71.8848 44.8301 71.373 44.2559C70.8652 43.6777 70.6113 42.8887 70.6113 41.8887V41.707C70.6113 41.0898 70.7246 40.541 70.9512 40.0605C71.1777 39.5801 71.502 39.207 71.9238 38.9414C72.3496 38.6758 72.8516 38.543 73.4297 38.543C74.1406 38.543 74.7305 38.7559 75.1992 39.1816C75.6719 39.6074 75.9238 40.1602 75.9551 40.8398H74.9297C74.8984 40.4297 74.7422 40.0938 74.4609 39.832C74.1836 39.5664 73.8398 39.4336 73.4297 39.4336C72.8789 39.4336 72.4512 39.6328 72.1465 40.0312C71.8457 40.4258 71.6953 40.998 71.6953 41.748V41.9531C71.6953 42.6836 71.8457 43.2461 72.1465 43.6406C72.4473 44.0352 72.877 44.2324 73.4355 44.2324ZM78.6445 37.125V38.6602H79.8281V39.498H78.6445V43.4297C78.6445 43.6836 78.6973 43.875 78.8027 44.0039C78.9082 44.1289 79.0879 44.1914 79.3418 44.1914C79.4668 44.1914 79.6387 44.168 79.8574 44.1211V45C79.5723 45.0781 79.2949 45.1172 79.0254 45.1172C78.541 45.1172 78.1758 44.9707 77.9297 44.6777C77.6836 44.3848 77.5605 43.9688 77.5605 43.4297V39.498H76.4062V38.6602H77.5605V37.125H78.6445ZM82.2773 45H81.1934V38.6602H82.2773V45ZM81.1055 36.9785C81.1055 36.8027 81.1582 36.6543 81.2637 36.5332C81.373 36.4121 81.5332 36.3516 81.7441 36.3516C81.9551 36.3516 82.1152 36.4121 82.2246 36.5332C82.334 36.6543 82.3887 36.8027 82.3887 36.9785C82.3887 37.1543 82.334 37.3008 82.2246 37.418C82.1152 37.5352 81.9551 37.5938 81.7441 37.5938C81.5332 37.5938 81.373 37.5352 81.2637 37.418C81.1582 37.3008 81.1055 37.1543 81.1055 36.9785ZM86.1094 43.5293L87.6797 38.6602H88.7871L86.5137 45H85.6875L83.3906 38.6602H84.498L86.1094 43.5293ZM92.3789 45.1172C91.5195 45.1172 90.8203 44.8359 90.2812 44.2734C89.7422 43.707 89.4727 42.9512 89.4727 42.0059V41.8066C89.4727 41.1777 89.5918 40.6172 89.8301 40.125C90.0723 39.6289 90.4082 39.2422 90.8379 38.9648C91.2715 38.6836 91.7402 38.543 92.2441 38.543C93.0684 38.543 93.709 38.8145 94.166 39.3574C94.623 39.9004 94.8516 40.6777 94.8516 41.6895V42.1406H90.5566C90.5723 42.7656 90.7539 43.2715 91.1016 43.6582C91.4531 44.041 91.8984 44.2324 92.4375 44.2324C92.8203 44.2324 93.1445 44.1543 93.4102 43.998C93.6758 43.8418 93.9082 43.6348 94.1074 43.377L94.7695 43.8926C94.2383 44.709 93.4414 45.1172 92.3789 45.1172ZM92.2441 39.4336C91.8066 39.4336 91.4395 39.5938 91.1426 39.9141C90.8457 40.2305 90.6621 40.6758 90.5918 41.25H93.7676V41.168C93.7363 40.6172 93.5879 40.1914 93.3223 39.8906C93.0566 39.5859 92.6973 39.4336 92.2441 39.4336ZM100.113 38.6602L100.148 39.457C100.633 38.8477 101.266 38.543 102.047 38.543C103.387 38.543 104.062 39.2988 104.074 40.8105V45H102.99V40.8047C102.986 40.3477 102.881 40.0098 102.674 39.791C102.471 39.5723 102.152 39.4629 101.719 39.4629C101.367 39.4629 101.059 39.5566 100.793 39.7441C100.527 39.9316 100.32 40.1777 100.172 40.4824V45H99.0879V38.6602H100.113ZM105.422 41.7715C105.422 41.1504 105.543 40.5918 105.785 40.0957C106.031 39.5996 106.371 39.2168 106.805 38.9473C107.242 38.6777 107.74 38.543 108.299 38.543C109.162 38.543 109.859 38.8418 110.391 39.4395C110.926 40.0371 111.193 40.832 111.193 41.8242V41.9004C111.193 42.5176 111.074 43.0723 110.836 43.5645C110.602 44.0527 110.264 44.4336 109.822 44.707C109.385 44.9805 108.881 45.1172 108.311 45.1172C107.451 45.1172 106.754 44.8184 106.219 44.2207C105.688 43.623 105.422 42.832 105.422 41.8477V41.7715ZM106.512 41.9004C106.512 42.6035 106.674 43.168 106.998 43.5938C107.326 44.0195 107.764 44.2324 108.311 44.2324C108.861 44.2324 109.299 44.0176 109.623 43.5879C109.947 43.1543 110.109 42.5488 110.109 41.7715C110.109 41.0762 109.943 40.5137 109.611 40.084C109.283 39.6504 108.846 39.4336 108.299 39.4336C107.764 39.4336 107.332 39.6465 107.004 40.0723C106.676 40.498 106.512 41.1074 106.512 41.9004ZM118.166 43.5059L119.385 38.6602H120.469L118.623 45H117.744L116.203 40.1953L114.703 45H113.824L111.984 38.6602H113.062L114.311 43.4062L115.787 38.6602H116.66L118.166 43.5059Z" fill="white"/>
<g filter="url(#filter0_di)">
<path d="M14.5795 20.0126C14.5795 19.7071 14.5795 19.5543 14.5828 19.4251C14.7204 14.1048 19.0008 9.82443 24.321 9.68687C24.4502 9.68353 24.603 9.68353 24.9086 9.68353H37.3345C37.64 9.68353 37.7928 9.68353 37.922 9.68687C43.2423 9.82443 47.5227 14.1048 47.6602 19.4251C47.6636 19.5543 47.6636 19.7071 47.6636 20.0127V24.1288C47.6636 33.2648 40.2574 40.6709 31.1215 40.6709V40.6709C21.9856 40.6709 14.5795 33.2647 14.5795 24.1288V20.0126Z" fill="url(#paint0_linear)"/>
</g>
<g filter="url(#filter1_i)">
<path d="M6.16821 20.9315C6.16821 17.2152 9.18088 14.2025 12.8972 14.2025V14.2025V33.5696V33.5696C9.18088 33.5696 6.16821 30.557 6.16821 26.8407V20.9315Z" fill="url(#paint1_linear)"/>
</g>
<g filter="url(#filter2_di)">
<path d="M56.0747 20.9315C56.0747 17.2152 53.062 14.2025 49.3457 14.2025V14.2025V33.5696V33.5696C53.062 33.5696 56.0747 30.557 56.0747 26.8407V20.9315Z" fill="url(#paint2_linear)"/>
</g>
<circle cx="133.5" cy="41.5" r="5.5" fill="#14FF00"/>
<defs>
<filter id="filter0_di" x="10.5795" y="9.68353" width="41.0841" height="38.9873" filterUnits="userSpaceOnUse" color-interpolation-filters="sRGB">
<feFlood flood-opacity="0" result="BackgroundImageFix"/>
<feColorMatrix in="SourceAlpha" type="matrix" values="0 0 0 0 0 0 0 0 0 0 0 0 0 0 0 0 0 0 127 0"/>
<feOffset dy="4"/>
<feGaussianBlur stdDeviation="2"/>
<feColorMatrix type="matrix" values="0 0 0 0 0 0 0 0 0 0 0 0 0 0 0 0 0 0 0.25 0"/>
<feBlend mode="normal" in2="BackgroundImageFix" result="effect1_dropShadow"/>
<feBlend mode="normal" in="SourceGraphic" in2="effect1_dropShadow" result="shape"/>
<feColorMatrix in="SourceAlpha" type="matrix" values="0 0 0 0 0 0 0 0 0 0 0 0 0 0 0 0 0 0 127 0" result="hardAlpha"/>
<feOffset dy="4"/>
<feGaussianBlur stdDeviation="2"/>
<feComposite in2="hardAlpha" operator="arithmetic" k2="-1" k3="1"/>
<feColorMatrix type="matrix" values="0 0 0 0 0 0 0 0 0 0 0 0 0 0 0 0 0 0 0.25 0"/>
<feBlend mode="normal" in2="shape" result="effect2_innerShadow"/>
</filter>
<filter id="filter1_i" x="6.16821" y="14.2025" width="6.72897" height="23.3671" filterUnits="userSpaceOnUse" color-interpolation-filters="sRGB">
<feFlood flood-opacity="0" result="BackgroundImageFix"/>
<feBlend mode="normal" in="SourceGraphic" in2="BackgroundImageFix" result="shape"/>
<feColorMatrix in="SourceAlpha" type="matrix" values="0 0 0 0 0 0 0 0 0 0 0 0 0 0 0 0 0 0 127 0" result="hardAlpha"/>
<feOffset dy="4"/>
<feGaussianBlur stdDeviation="2"/>
<feComposite in2="hardAlpha" operator="arithmetic" k2="-1" k3="1"/>
<feColorMatrix type="matrix" values="0 0 0 0 0 0 0 0 0 0 0 0 0 0 0 0 0 0 0.25 0"/>
<feBlend mode="normal" in2="shape" result="effect1_innerShadow"/>
</filter>
<filter id="filter2_di" x="45.3457" y="14.2025" width="14.729" height="27.3671" filterUnits="userSpaceOnUse" color-interpolation-filters="sRGB">
<feFlood flood-opacity="0" result="BackgroundImageFix"/>
<feColorMatrix in="SourceAlpha" type="matrix" values="0 0 0 0 0 0 0 0 0 0 0 0 0 0 0 0 0 0 127 0"/>
<feOffset dy="4"/>
<feGaussianBlur stdDeviation="2"/>
<feColorMatrix type="matrix" values="0 0 0 0 0 0 0 0 0 0 0 0 0 0 0 0 0 0 0.25 0"/>
<feBlend mode="normal" in2="BackgroundImageFix" result="effect1_dropShadow"/>
<feBlend mode="normal" in="SourceGraphic" in2="effect1_dropShadow" result="shape"/>
<feColorMatrix in="SourceAlpha" type="matrix" values="0 0 0 0 0 0 0 0 0 0 0 0 0 0 0 0 0 0 127 0" result="hardAlpha"/>
<feOffset dy="4"/>
<feGaussianBlur stdDeviation="2"/>
<feComposite in2="hardAlpha" operator="arithmetic" k2="-1" k3="1"/>
<feColorMatrix type="matrix" values="0 0 0 0 0 0 0 0 0 0 0 0 0 0 0 0 0 0 0.25 0"/>
<feBlend mode="normal" in2="shape" result="effect2_innerShadow"/>
</filter>
<linearGradient id="paint0_linear" x1="31.1215" y1="9.68353" x2="30.7499" y2="81.0185" gradientUnits="userSpaceOnUse">
<stop stop-color="#3B38A9" stop-opacity="0.92"/>
<stop offset="1" stop-color="#A23489" stop-opacity="0.87"/>
</linearGradient>
<linearGradient id="paint1_linear" x1="9.5327" y1="14.2025" x2="9.5327" y2="33.5696" gradientUnits="userSpaceOnUse">
<stop offset="0.9999" stop-color="#4A48AC"/>
<stop offset="1" stop-color="#5452B4" stop-opacity="0"/>
</linearGradient>
<linearGradient id="paint2_linear" x1="52.7102" y1="14.2025" x2="52.7102" y2="33.5696" gradientUnits="userSpaceOnUse">
<stop offset="0.9999" stop-color="#4A48AC"/>
<stop offset="1" stop-color="#5452B4" stop-opacity="0"/>
</linearGradient>
</defs>
</svg>
