<svg width="205" height="62" viewBox="0 0 205 62" fill="none" xmlns="http://www.w3.org/2000/svg">
<g filter="url(#filter0_d)">
<path d="M5.2666 39.3164V3.25684C5.2666 2.77832 5.49447 2.53906 5.9502 2.53906H9.8125C10.2682 2.53906 10.5189 2.77832 10.5645 3.25684L11.2139 7.08496C11.3506 6.94824 11.5329 6.75456 11.7607 6.50391C12.0114 6.25326 12.5127 5.79753 13.2646 5.13672C14.0394 4.47591 14.8483 3.90625 15.6914 3.42773C17.8789 2.15169 20.2943 1.51367 22.9375 1.51367C25.5807 1.51367 27.9277 2.15169 29.9785 3.42773C32.0293 4.70378 33.5902 6.5153 34.6611 8.8623C35.3219 7.88249 36.1309 6.91406 37.0879 5.95703C38.0449 5 39.5033 4.02018 41.4629 3.01758C43.4225 2.01497 45.4733 1.51367 47.6152 1.51367C51.7624 1.51367 55.0664 2.91504 57.5273 5.71777C60.0111 8.49772 61.2529 12.4626 61.2529 17.6123V39.3164C61.2529 39.7721 61.0251 40 60.5693 40H55.6475C55.1917 40 54.9639 39.7721 54.9639 39.3164V17.6123C54.9639 13.9209 54.2347 11.1296 52.7764 9.23828C51.3408 7.34701 49.5977 6.40137 47.5469 6.40137C45.4961 6.40137 43.5706 7.03939 41.7705 8.31543C39.9704 9.56868 38.626 10.7536 37.7373 11.8701C36.8486 12.9867 36.4043 13.6133 36.4043 13.75V39.3164C36.4043 39.7721 36.1764 40 35.7207 40H30.7988C30.3431 40 30.1152 39.7721 30.1152 39.3164V17.6123C30.1152 13.9209 29.3861 11.1296 27.9277 9.23828C26.4922 7.34701 24.749 6.40137 22.6982 6.40137C20.6475 6.40137 18.722 7.03939 16.9219 8.31543C15.1217 9.56868 13.7773 10.7536 12.8887 11.8701C12 12.9867 11.5557 13.6133 11.5557 13.75V39.3164C11.5557 39.7721 11.3278 40 10.8721 40H5.9502C5.49447 40 5.2666 39.7721 5.2666 39.3164ZM73.8994 24.585V3.25684C73.8994 2.80111 74.1273 2.56185 74.583 2.53906H79.5049C79.9606 2.53906 80.1885 2.77832 80.1885 3.25684V24.585C80.1885 28.2764 81.1455 31.1247 83.0596 33.1299C84.9736 35.1351 87.4004 36.1377 90.3398 36.1377C91.6842 36.1377 93.0059 35.887 94.3047 35.3857C95.6263 34.8617 96.7201 34.2578 97.5859 33.5742C98.4518 32.8678 99.2266 32.1501 99.9102 31.4209C101.232 29.9854 101.893 29.1081 101.893 28.7891V3.25684C101.893 2.80111 102.12 2.56185 102.576 2.53906H107.498C107.954 2.53906 108.182 2.77832 108.182 3.25684V39.3164C108.182 39.7721 107.954 40 107.498 40H103.636C103.18 40 102.929 39.7721 102.884 39.3164L102.234 35.4541C101.938 35.9098 101.334 36.5137 100.423 37.2656C99.5342 38.0176 98.6569 38.6328 97.791 39.1113C95.5124 40.4102 92.9147 41.0596 89.998 41.0596C85.2812 41.0596 81.4189 39.6012 78.4111 36.6846C75.4033 33.7451 73.8994 29.7119 73.8994 24.585ZM122.229 50.835V3.25684C122.229 2.80111 122.457 2.56185 122.913 2.53906H126.775C127.231 2.53906 127.482 2.77832 127.527 3.25684L128.177 7.08496C128.427 6.69759 128.997 6.11654 129.886 5.3418C130.797 4.54427 131.663 3.90625 132.483 3.42773C134.603 2.15169 137.018 1.51367 139.729 1.51367C144.72 1.51367 148.821 3.21126 152.034 6.60645C155.27 9.97884 156.888 14.8551 156.888 21.2354C156.888 27.6156 155.224 32.5146 151.897 35.9326C148.593 39.3506 144.298 41.0596 139.012 41.0596C137.234 41.0596 135.468 40.8773 133.714 40.5127C131.982 40.1709 130.672 39.8177 129.783 39.4531L128.519 38.9404V50.835C128.519 51.2907 128.291 51.5299 127.835 51.5527H122.913C122.457 51.5299 122.229 51.2907 122.229 50.835ZM128.519 34.0527C131.549 35.4427 134.865 36.1377 138.465 36.1377C142.065 36.1377 144.982 34.9072 147.215 32.4463C149.448 29.9626 150.564 26.2598 150.564 21.3379C150.564 16.416 149.539 12.7018 147.488 10.1953C145.438 7.66602 142.737 6.40137 139.388 6.40137C136.129 6.40137 133.156 7.97363 130.467 11.1182C129.168 12.6221 128.519 13.4993 128.519 13.75V34.0527ZM161.878 3.25684C161.832 3.16569 161.81 3.07454 161.81 2.9834C161.81 2.68717 162.015 2.53906 162.425 2.53906H167.142C167.688 2.53906 168.03 2.77832 168.167 3.25684L175.96 25.6445C176.985 28.5384 178.159 30.612 179.48 31.8652C180.802 33.0957 182.614 33.7109 184.915 33.7109L192.947 3.25684C193.084 2.77832 193.437 2.53906 194.007 2.53906H198.689C199.122 2.53906 199.339 2.68717 199.339 2.9834C199.339 3.07454 199.316 3.16569 199.271 3.25684L189.939 38.5986C188.641 43.4977 186.909 47.0524 184.744 49.2627C182.602 51.4958 179.788 52.6123 176.302 52.6123C173.864 52.6123 171.619 52.2591 169.568 51.5527L168.611 51.2109C168.133 50.9603 167.894 50.6527 167.894 50.2881V46.8701C167.894 46.3005 168.133 46.1068 168.611 46.2891C170.936 47.2233 173.214 47.6904 175.447 47.6904C177.703 47.6904 179.424 47.041 180.608 45.7422C181.793 44.4434 182.807 42.0622 183.65 38.5986C180.005 38.5986 177.179 37.6416 175.174 35.7275C173.169 33.8135 171.323 30.4297 169.637 25.5762L161.878 3.25684Z" fill="white"/>
</g>
<defs>
<filter id="filter0_d" x="0.266602" y="0.513672" width="204.072" height="61.0986" filterUnits="userSpaceOnUse" color-interpolation-filters="sRGB">
<feFlood flood-opacity="0" result="BackgroundImageFix"/>
<feColorMatrix in="SourceAlpha" type="matrix" values="0 0 0 0 0 0 0 0 0 0 0 0 0 0 0 0 0 0 127 0"/>
<feOffset dy="4"/>
<feGaussianBlur stdDeviation="2.5"/>
<feColorMatrix type="matrix" values="0 0 0 0 0 0 0 0 0 0 0 0 0 0 0 0 0 0 0.3 0"/>
<feBlend mode="normal" in2="BackgroundImageFix" result="effect1_dropShadow"/>
<feBlend mode="normal" in="SourceGraphic" in2="effect1_dropShadow" result="shape"/>
</filter>
</defs>
</svg>
